# xmcd
#
# Track frame offsets: 
#        150
#        2999
#        22909
#        40776
#        58305
#        59420
#        78123
#        93869
#        112280
#        130612
#        135097
#
# Disc length: 2050 seconds
#
# Revision: 0
# Processed by: cddbd v1.5.2PL0 Copyright (c) Steve Scherf et al.
# Submitted via: ExactAudioCopy v0.95b4
#
DISCID=8408000b
DTITLE=True Story - True Story
DYEAR=2007
DGENRE=R&B
TTITLE0=Intro
TTITLE1=True Story
TTITLE2=Timaya
TTITLE3=Honey na Money
TTITLE4=Skit
TTITLE5=Dem mama
TTITLE6=Pomporo ft Tejang and Menthol X
TTITLE7=Ogologomma ft Papiurhobo
TTITLE8=Bayelsa - Otu
TTITLE9=Skit
TTITLE10=Wayo People
EXTD=
EXTT0=
EXTT1=
EXTT2=
EXTT3=
EXTT4=
EXTT5=
EXTT6=
EXTT7=
EXTT8=
EXTT9=
EXTT10=
PLAYORDER=
